<svg xmlns="http://www.w3.org/2000/svg" viewBox="0 0 132.3 104.1">
  <rect width="132.3" height="104.1" rx="18" fill="#0c0c0e"/>
  <g transform="translate(6 5) scale(0.91)">
    <path fill="#fef30c" d="M132.29,43.24c-1.12.05-2.12.36-3.31.64l-18.06,4.21.05,9.74-2.94,5.29-3.98,7.15,3.47-14.58.82-3.34c-.2-.66-.74-1.07-1.2-1.67l-10.95-13.66h-16.59s-5.53,12.63-5.53,12.63c-.2.19-.31.43-.31.62s.15.38.37.55l7.03,12.13c-.27.41-.34.92-.48,1.47l-.72,2.7,2.81,1.85,5.27,3.72-2.38,5.63-6.61,2.54c-4.24,1.15-8.46,2-12.85,2.86l-3.77,4.97c-.19.26-.32.52-.61.53l-.88-3.06-3.86.28,1.48,17.45-4.74.2-2.58-14.37-5.22.16-.79,14.03h-3.8s.17-12.18.17-12.18l.03-5.46-17.04-5.79-.4,8.25-6.94-5.39-13.37-10.38L.05,43.72c-.11-.83-.04-1,.33-1.71l12.09-23.34,10.7-3.69L66.12,0l25.11,8.73,28.62,10,7.98,15.41,4.3,8.45c.2.23.18.45.16.65ZM26.65,60.67l3.6,4.63,16.21.04,3.16-3.68,5.43-6.16-1.71-6.74c-.49-1.92-.81-3.78-1.49-5.64-.06-.16.1-.5-.12-.73l-12.93-5.35-14.9,7.97,2.76,15.66Z"/>
    <path fill="#fcc521" d="M132.29,43.24l-1.15,8.79-2.48,18.66-.24,2.35-3.2,2.35-10.13,7.5-12.77-2.43.63,10.76c.15,2.48-.8,4.8-2.68,6.36-.41.32-.7.74-1.28.99l-.49-14.34-12.75-1.13-.9,13.01,5.48.26c.03,1.13.05,2.24-.35,3.37l-3.85.15c-.72.03-1.8.22-2.25.77l-.57,2.97c-1.2.7-2.6.46-3.84-.12l-1.1-18.12-6.38-.89.95,19.6-6.96-.5-4.16-14.35c.29,0,.42-.28.61-.53l3.77-4.97c4.39-.86,8.61-1.71,12.85-2.86l6.61-2.54,2.38-5.63-5.27-3.72-2.81-1.85.72-2.7c.14-.54.21-1.06.48-1.47l16.69,4.18,9.84-14.07c.22-.31.29-.63.65-.71l-.82,3.34-3.47,14.58,3.98-7.15,2.94-5.29-.05-9.74,18.06-4.21c1.19-.28,2.19-.59,3.31-.64Z"/>
    <path fill="#fcc521" d="M26.65,60.67l14.31,2.16,10.78-7.71.11-12c.68,1.86,1,3.72,1.49,5.64l1.71,6.74-5.43,6.16-3.16,3.68-16.21-.04-3.6-4.63Z"/>
  </g>
</svg>
